<svg width="48" height="48" viewBox="0 0 48 48" fill="none" xmlns="http://www.w3.org/2000/svg">
<g clip-path="url(#clip0_57_23)">
<path d="M0.528076 0.527954H47.4721V47.4723H0.528076V0.527954Z" fill="#F0DB4F"/>
<path d="M43.6301 36.276C43.2862 34.1343 41.8897 32.3355 37.7531 30.6581C36.3161 29.9977 34.7141 29.5248 34.2367 28.4358C34.0672 27.8021 34.0447 27.4451 34.152 27.0615C34.4598 25.8165 35.946 25.4283 37.1238 25.7853C37.8825 26.0396 38.6006 26.6242 39.0337 27.5568C41.0595 26.2451 41.0553 26.2537 42.4698 25.3522C41.952 24.5493 41.6756 24.1788 41.3366 23.8353C40.1182 22.4745 38.4581 21.7736 35.8031 21.8272L34.4201 22.0061C33.0948 22.341 31.8318 23.0366 31.0912 23.9692C28.869 26.4907 29.5027 30.9037 32.2068 32.7198C34.8708 34.7193 38.7843 35.1742 39.2842 37.044C39.7706 39.333 37.602 40.074 35.4465 39.8107C33.858 39.4803 32.9745 38.673 32.0193 37.2048C30.2613 38.2222 30.2613 38.2222 28.4538 39.2617C28.8825 40.1988 29.3328 40.623 30.0513 41.4348C33.4518 44.8841 41.9613 44.7146 43.4876 39.4938C43.5495 39.3146 43.9605 38.1191 43.6301 36.276ZM26.0482 22.1036H21.6573L21.6393 33.4556C21.6393 35.8698 21.7642 38.0831 21.3716 38.7615C20.7292 40.0957 19.0646 39.9303 18.306 39.6716C17.5338 39.2921 17.1412 38.7525 16.6863 37.9897C16.5615 37.7707 16.4677 37.6012 16.4362 37.5881L12.8662 39.7743C13.4598 40.9927 14.3343 42.0502 15.4545 42.7372C17.1277 43.7415 19.3766 44.0493 21.7286 43.5093C23.2593 43.0635 24.5801 42.1398 25.2716 40.734C26.2713 38.8908 26.0568 36.66 26.0478 34.1925C26.0703 30.1668 26.0482 26.142 26.0482 22.1036Z" fill="#323330"/>
</g>
<defs>
<clipPath id="clip0_57_23">
<rect width="48" height="48" fill="white"/>
</clipPath>
</defs>
</svg>
