<svg width="48" height="48" viewBox="0 0 48 48" fill="none" xmlns="http://www.w3.org/2000/svg">
<g clip-path="url(#clip0_58_58)">
<path d="M8.50122 17.625H45.8775V45.2512H8.50122V17.625Z" fill="white"/>
<path d="M0.5625 23.9663V47.4038H47.4375V0.528809H0.5625V23.9663ZM38.3363 22.0913C39.459 22.3518 40.4794 22.939 41.2688 23.7788C41.7033 24.2312 42.0811 24.7349 42.3938 25.2788C42.3938 25.3388 40.3688 26.7076 39.135 27.4726C39.09 27.5026 38.91 27.3076 38.7113 27.0113C38.486 26.6227 38.166 26.2975 37.7811 26.066C37.3962 25.8345 36.9589 25.7043 36.51 25.6876C35.0888 25.5901 34.1738 26.3363 34.1813 27.5626C34.1695 27.8679 34.2394 28.1708 34.3838 28.4401C34.695 29.0888 35.2763 29.4751 37.0988 30.2626C40.455 31.7063 41.8912 32.6588 42.7837 34.0126C43.7812 35.5126 44.0025 37.9351 43.3275 39.7276C42.5775 41.6776 40.74 43.0013 38.1412 43.4401C36.9543 43.576 35.7551 43.5634 34.5713 43.4026C32.7569 43.1035 31.0856 42.2324 29.8013 40.9163C29.37 40.4401 28.53 39.1988 28.5825 39.1088C28.7194 39.0072 28.8635 38.9157 29.0138 38.8351L30.75 37.8751L32.0962 37.0951L32.3775 37.5113C32.8522 38.1903 33.4562 38.7688 34.155 39.2138C35.655 40.0013 37.7025 39.8926 38.715 38.9813C39.0549 38.6474 39.267 38.2048 39.3143 37.7307C39.3616 37.2565 39.2411 36.7808 38.9738 36.3863C38.5988 35.8651 37.8487 35.4263 35.7525 34.5113C33.3337 33.4688 32.2912 32.8238 31.3387 31.7963C30.7441 31.1183 30.3051 30.3183 30.0525 29.4526C29.8641 28.4635 29.8362 27.4505 29.97 26.4526C30.4687 24.1163 32.22 22.4851 34.7775 22.0013C35.9619 21.8548 37.1616 21.8876 38.3363 22.0988V22.0913ZM27.3337 24.0563V25.9763H21.2475V43.3126H16.9313V25.9726H10.83V24.0976C10.811 23.451 10.826 22.8038 10.875 22.1588C10.905 22.1251 14.625 22.1251 19.125 22.1251H27.3113L27.3337 24.0563Z" fill="#007ACC"/>
</g>
<defs>
<clipPath id="clip0_58_58">
<rect width="48" height="48" fill="white"/>
</clipPath>
</defs>
</svg>
