<svg width="48" height="48" viewBox="0 0 48 48" fill="none" xmlns="http://www.w3.org/2000/svg">
<path d="M30.564 3.54939C30.9289 4.00202 31.1149 4.61289 31.4854 5.83314L39.6064 32.5091C36.5562 30.926 33.2823 29.8177 29.8977 29.2223L24.6109 11.355C24.5692 11.2122 24.4822 11.0868 24.3631 10.9976C24.244 10.9084 24.0991 10.8603 23.9503 10.8604C23.8015 10.8606 23.6568 10.9091 23.5379 10.9985C23.419 11.088 23.3323 11.2136 23.2909 11.3565L18.0675 29.2133C14.6681 29.8062 11.3796 30.9163 8.31641 32.505L16.4757 5.82752C16.8492 4.60877 17.0352 3.99902 17.3997 3.54639C17.7218 3.14798 18.1404 2.83845 18.6158 2.64714C19.1532 2.43152 19.7918 2.43152 21.0664 2.43152H26.895C28.1708 2.43152 28.8094 2.43152 29.3487 2.64864C29.8243 2.83991 30.2425 3.15005 30.564 3.54939Z" fill="url(#paint0_linear_57_35)"/>
<path d="M31.5352 33.7778C30.1965 34.9234 27.5242 35.7042 24.4466 35.7042C20.6704 35.7042 17.5035 34.5278 16.6639 32.9457C16.3639 33.8524 16.2964 34.8897 16.2964 35.5534C16.2964 35.5534 16.0987 38.8066 18.3619 41.0697C18.3619 40.7904 18.4169 40.5138 18.5238 40.2558C18.6307 39.9977 18.7874 39.7633 18.9849 39.5658C19.1824 39.3683 19.4169 39.2117 19.6749 39.1048C19.933 38.998 20.2096 38.943 20.4889 38.9431C22.5026 38.9431 22.5015 40.6992 22.5 42.1261V42.2521C22.5 44.4169 23.8226 46.2717 25.7036 47.0539C25.4137 46.4584 25.2634 45.8045 25.2641 45.1422C25.2641 43.0767 26.4754 42.3091 27.8846 41.4154C29.0055 40.7052 30.2505 39.9154 31.1074 38.3322C31.5698 37.4791 31.8115 36.5238 31.8105 35.5534C31.811 34.9509 31.7182 34.3519 31.5352 33.7778Z" fill="#FF5D01"/>
<path d="M31.5352 33.7778C30.1965 34.9234 27.5242 35.7042 24.4466 35.7042C20.6704 35.7042 17.5035 34.5278 16.6639 32.9457C16.3639 33.8524 16.2964 34.8897 16.2964 35.5534C16.2964 35.5534 16.0987 38.8066 18.3619 41.0697C18.3619 40.7904 18.4169 40.5138 18.5238 40.2558C18.6307 39.9977 18.7874 39.7633 18.9849 39.5658C19.1824 39.3683 19.4169 39.2117 19.6749 39.1048C19.933 38.998 20.2096 38.943 20.4889 38.9431C22.5026 38.9431 22.5015 40.6992 22.5 42.1261V42.2521C22.5 44.4169 23.8226 46.2717 25.7036 47.0539C25.4137 46.4584 25.2634 45.8045 25.2641 45.1422C25.2641 43.0767 26.4754 42.3091 27.8846 41.4154C29.0055 40.7052 30.2505 39.9154 31.1074 38.3322C31.5698 37.4791 31.8115 36.5238 31.8105 35.5534C31.811 34.9509 31.7182 34.3519 31.5352 33.7778Z" fill="url(#paint1_linear_57_35)"/>
<defs>
<linearGradient id="paint0_linear_57_35" x1="33.1124" y1="1.01676" x2="23.9608" y2="32.5088" gradientUnits="userSpaceOnUse">
<stop stop-color="#000014"/>
<stop offset="1" stop-color="#150426"/>
</linearGradient>
<linearGradient id="paint1_linear_57_35" x1="37.563" y1="24.4669" x2="29.6372" y2="41.0592" gradientUnits="userSpaceOnUse">
<stop stop-color="#FF1639"/>
<stop offset="1" stop-color="#FF1639" stop-opacity="0"/>
</linearGradient>
</defs>
</svg>
