<svg width="48" height="48" viewBox="0 0 48 48" fill="none" xmlns="http://www.w3.org/2000/svg">
<path d="M7.13884 42.7036L3.38696 0.622925H44.613L40.857 42.6972L23.9748 47.3772L7.13884 42.7036Z" fill="#E44D26"/>
<path d="M24 43.8L37.6417 40.0177L40.8514 4.06348H24V43.8Z" fill="#F16529"/>
<path d="M24 19.6706H17.1705L16.6987 14.3854H24V9.22461H11.0583L11.1821 10.6091L12.4503 24.8317H24V19.6706ZM24 33.0742L23.9771 33.0806L18.2295 31.5281L17.8623 27.4125H12.681L13.404 35.5159L23.9763 38.4506L24 38.4442V33.0742Z" fill="#EBEBEB"/>
<path d="M23.9819 19.6706V24.8317H30.3371L29.7382 31.5251L23.9819 33.0787V38.4484L34.5626 35.5159L34.6402 34.644L35.8529 21.0566L35.9786 19.6706H34.5881H23.9819ZM23.9819 9.22461V14.3854H36.4484L36.5519 13.2259L36.7874 10.6091L36.9108 9.22461H23.9819Z" fill="white"/>
</svg>
