<svg width="48" height="48" viewBox="0 0 48 48" fill="none" xmlns="http://www.w3.org/2000/svg">
<path d="M23.9999 28.275C26.3609 28.275 28.2749 26.361 28.2749 24C28.2749 21.639 26.3609 19.725 23.9999 19.725C21.6388 19.725 19.7249 21.639 19.7249 24C19.7249 26.361 21.6388 28.275 23.9999 28.275Z" fill="#61DAFB"/>
<path d="M40.2374 16.95C39.4124 16.65 38.5499 16.35 37.6499 16.0875C37.8749 15.1875 38.0624 14.2875 38.2124 13.425C38.9999 8.47498 38.1374 4.98748 35.7374 3.63748C35.0249 3.22498 34.2374 3.03748 33.3374 3.03748C30.7124 3.03748 27.3749 4.98748 23.9999 8.24998C20.6249 4.98748 17.2874 3.03748 14.6624 3.03748C13.7624 3.03748 12.9749 3.22498 12.2624 3.63748C9.8624 5.02498 8.9999 8.51248 9.7874 13.425C9.9374 14.2875 10.1249 15.1875 10.3499 16.0875C9.4499 16.35 8.5874 16.6125 7.7624 16.95C3.0749 18.75 0.524902 21.225 0.524902 24C0.524902 26.775 3.1124 29.25 7.7624 31.05C8.5874 31.35 9.4499 31.65 10.3499 31.9125C10.1249 32.8125 9.9374 33.7125 9.7874 34.575C8.9999 39.525 9.8624 43.0125 12.2624 44.3625C12.9749 44.775 13.7624 44.9625 14.6624 44.9625C17.3249 44.9625 20.6624 43.0125 23.9999 39.75C27.3749 43.0125 30.7124 44.9625 33.3374 44.9625C34.2374 44.9625 35.0249 44.775 35.7374 44.3625C38.1374 42.975 38.9999 39.4875 38.2124 34.575C38.0624 33.7125 37.8749 32.8125 37.6499 31.9125C38.5499 31.65 39.4124 31.3875 40.2374 31.05C44.9249 29.25 47.4749 26.775 47.4749 24C47.4749 21.225 44.9249 18.75 40.2374 16.95ZM34.6874 5.51248C36.2249 6.41248 36.7499 9.18748 36.1124 13.125C35.9999 13.9125 35.8124 14.7375 35.5874 15.6C33.6374 15.15 31.5749 14.85 29.3999 14.6625C28.1249 12.8625 26.8124 11.25 25.4999 9.78748C28.2749 7.04998 31.0874 5.17498 33.3749 5.17498C33.8624 5.17498 34.3124 5.28748 34.6874 5.51248ZM30.4874 27.75C29.8124 28.95 29.0249 30.15 28.1999 31.35C26.8124 31.4625 25.4249 31.5 23.9999 31.5C22.5374 31.5 21.1499 31.4625 19.7999 31.35C18.9749 30.15 18.2249 28.95 17.5499 27.75C16.8374 26.5125 16.1624 25.2375 15.5624 24C16.1624 22.7625 16.8374 21.4875 17.5499 20.25C18.2249 19.05 19.0124 17.85 19.8374 16.65C21.2249 16.5375 22.6124 16.5 24.0374 16.5C25.4999 16.5 26.8874 16.5375 28.2374 16.65C29.0624 17.85 29.8124 19.05 30.4874 20.25C31.1999 21.4875 31.8749 22.7625 32.4749 24C31.8374 25.2375 31.1999 26.475 30.4874 27.75ZM33.5999 26.5125C34.1624 27.825 34.6124 29.1 35.0249 30.375C33.7499 30.675 32.3999 30.9 30.9749 31.0875C31.4249 30.375 31.9124 29.625 32.3249 28.8375C32.7749 28.05 33.1874 27.2625 33.5999 26.5125ZM23.9999 36.675C23.0999 35.7 22.2374 34.65 21.4124 33.5625C22.2749 33.6 23.1374 33.6375 23.9999 33.6375C24.8624 33.6375 25.7249 33.6 26.5874 33.5625C25.7624 34.65 24.8999 35.7 23.9999 36.675ZM17.0249 31.05C15.5999 30.8625 14.2499 30.6375 12.9749 30.3375C13.3874 29.1 13.8374 27.7875 14.3999 26.475C14.8124 27.225 15.2249 28.0125 15.6749 28.7625C16.1249 29.5875 16.5749 30.3 17.0249 31.05ZM14.3999 21.4875C13.8374 20.175 13.3874 18.9 12.9749 17.625C14.2499 17.325 15.5999 17.1 17.0249 16.9125C16.5749 17.625 16.0874 18.375 15.6749 19.1625C15.2249 19.95 14.8124 20.7375 14.3999 21.4875ZM23.9999 11.325C24.8999 12.3 25.7624 13.35 26.5874 14.4375C25.7249 14.4 24.8624 14.3625 23.9999 14.3625C23.1374 14.3625 22.2749 14.4 21.4124 14.4375C22.2374 13.35 23.0999 12.3 23.9999 11.325ZM32.3249 19.2L30.9749 16.95C32.3999 17.1375 33.7499 17.3625 35.0249 17.6625C34.6124 18.9 34.1624 20.2125 33.5999 21.525C33.1874 20.7375 32.7749 19.95 32.3249 19.2ZM11.8874 13.125C11.2499 9.18748 11.7749 6.41248 13.3124 5.51248C13.6874 5.28748 14.1374 5.17498 14.6249 5.17498C16.8749 5.17498 19.6874 7.01248 22.4999 9.78748C21.1874 11.2125 19.8749 12.8625 18.5999 14.6625C16.4249 14.85 14.3624 15.1875 12.4124 15.6C12.1874 14.7375 12.0374 13.9125 11.8874 13.125ZM2.6249 24C2.6249 22.2375 4.7624 20.3625 8.5124 18.975C9.2624 18.675 10.0874 18.4125 10.9124 18.1875C11.5124 20.0625 12.2624 22.05 13.1624 24.0375C12.2624 26.025 11.4749 27.975 10.9124 29.85C5.7374 28.35 2.6249 26.1 2.6249 24ZM13.3124 42.4875C11.7749 41.5875 11.2499 38.8125 11.8874 34.875C11.9999 34.0875 12.1874 33.2625 12.4124 32.4C14.3624 32.85 16.4249 33.15 18.5999 33.3375C19.8749 35.1375 21.1874 36.75 22.4999 38.2125C19.7249 40.95 16.9124 42.825 14.6249 42.825C14.1374 42.825 13.6874 42.7125 13.3124 42.4875ZM36.1124 34.875C36.7499 38.8125 36.2249 41.5875 34.6874 42.4875C34.3124 42.7125 33.8624 42.825 33.3749 42.825C31.1249 42.825 28.3124 40.9875 25.4999 38.2125C26.8124 36.7875 28.1249 35.1375 29.3999 33.3375C31.5749 33.15 33.6374 32.8125 35.5874 32.4C35.8124 33.2625 35.9624 34.0875 36.1124 34.875ZM39.4874 29.025C38.7374 29.325 37.9124 29.5875 37.0874 29.8125C36.4874 27.9375 35.7374 25.95 34.8374 23.9625C35.7374 21.975 36.5249 20.025 37.0874 18.15C42.2624 19.65 45.3749 21.9 45.3749 24C45.3749 25.7625 43.1999 27.6375 39.4874 29.025Z" fill="#61DAFB"/>
</svg>
