<svg width="48" height="48" viewBox="0 0 48 48" fill="none" xmlns="http://www.w3.org/2000/svg">
<path d="M46.7871 7.32003L25.2464 45.8393C24.8013 46.6347 23.6586 46.6392 23.2075 45.8483L1.23927 7.32453C0.746899 6.46128 1.48377 5.41691 2.46215 5.59128L24.0261 9.44516C24.1638 9.47028 24.3048 9.47028 24.4424 9.44516L45.5549 5.59728C46.5292 5.41991 47.2705 6.45566 46.7871 7.32003Z" fill="url(#paint0_linear_57_40)"/>
<path d="M34.2974 0.536307L18.3577 3.65931C18.2305 3.68417 18.1151 3.75058 18.0297 3.84812C17.9443 3.94565 17.8937 4.06879 17.8859 4.19818L16.9046 20.7612C16.8993 20.852 16.9152 20.9428 16.9511 21.0264C16.987 21.11 17.0419 21.1841 17.1114 21.2428C17.1809 21.3016 17.2631 21.3433 17.3515 21.3648C17.4399 21.3862 17.5321 21.3868 17.6208 21.3664L22.0593 20.3408C22.1549 20.3188 22.2545 20.3212 22.3489 20.3478C22.4433 20.3743 22.5296 20.4241 22.5997 20.4926C22.6699 20.5611 22.7217 20.6462 22.7505 20.74C22.7793 20.8337 22.784 20.9332 22.7643 21.0293L21.4454 27.4864C21.4253 27.5858 21.4313 27.6887 21.4628 27.7851C21.4944 27.8815 21.5504 27.968 21.6254 28.0362C21.7004 28.1045 21.7919 28.152 21.8908 28.1743C21.9898 28.1966 22.0928 28.1928 22.1898 28.1633L24.9303 27.3297C25.3552 27.2007 25.7639 27.5742 25.6747 28.0092L23.5784 38.1518C23.4479 38.7863 24.2917 39.1321 24.6434 38.5883L24.8778 38.2253L37.8678 12.3016C38.0861 11.8666 37.7099 11.3716 37.2341 11.4638L32.6647 12.3458C32.5664 12.3649 32.4648 12.3584 32.3697 12.3269C32.2746 12.2955 32.1892 12.2401 32.1217 12.1661C32.0542 12.0921 32.0068 12.002 31.9841 11.9044C31.9615 11.8069 31.9643 11.7051 31.9923 11.6089L34.9736 1.27318C35.0016 1.17667 35.0043 1.07457 34.9814 0.97672C34.9585 0.878868 34.9108 0.788565 34.8428 0.714517C34.7749 0.640469 34.689 0.585172 34.5935 0.553958C34.4979 0.522744 34.396 0.516665 34.2974 0.536307Z" fill="url(#paint1_linear_57_40)"/>
<defs>
<linearGradient id="paint0_linear_57_40" x1="0.702349" y1="4.21488" x2="27.5125" y2="40.6252" gradientUnits="userSpaceOnUse">
<stop stop-color="#41D1FF"/>
<stop offset="1" stop-color="#BD34FE"/>
</linearGradient>
<linearGradient id="paint1_linear_57_40" x1="22.7887" y1="1.3838" x2="27.6385" y2="34.6531" gradientUnits="userSpaceOnUse">
<stop stop-color="#FFEA83"/>
<stop offset="0.083" stop-color="#FFDD35"/>
<stop offset="1" stop-color="#FFA800"/>
</linearGradient>
</defs>
</svg>
